HIERARCHY
ROOT Hips
{
	OFFSET 0.000000 0.000000 0.000000
	CHANNELS 6 Xposition Yposition Zposition Zrotation Yrotation Xrotation 
	JOINT LeftUpLeg_virtual
	{
		OFFSET 0.000000 0.000000 0.000000
		CHANNELS 3 Zrotation Yrotation Xrotation
		JOINT LeftUpLeg
		{
			OFFSET 10.205400 -3.823500 0.155100
			CHANNELS 3 Zrotation Yrotation Xrotation
			JOINT LeftLeg
			{
				OFFSET 0.708757 -12.982077 0.567790
				CHANNELS 3 Zrotation Yrotation Xrotation
				JOINT LeftFoot
				{
					OFFSET -0.708756 -10.717838 -2.184338
					CHANNELS 3 Zrotation Yrotation Xrotation
					JOINT LeftToeBase
					{
						OFFSET 0.108149 -7.191104 7.560241
						CHANNELS 3 Zrotation Yrotation Xrotation
						End Site
						{
							OFFSET 0.000000 0.000000 0.000000
						}
					}
				}
			}
		}
	}
	JOINT RightUpLeg_virtual
	{
		OFFSET 0.000000 0.000000 0.000000
		CHANNELS 3 Zrotation Yrotation Xrotation
		JOINT RightUpLeg
		{
			OFFSET -10.205400 -3.823500 0.005500
			CHANNELS 3 Zrotation Yrotation Xrotation
			JOINT RightLeg
			{
				OFFSET -0.708756 -12.982134 0.610632
				CHANNELS 3 Zrotation Yrotation Xrotation
				JOINT RightFoot
				{
					OFFSET 0.708754 -10.717769 -1.945823
					CHANNELS 3 Zrotation Yrotation Xrotation
					JOINT RightToeBase
					{
						OFFSET -0.108140 -7.191069 7.372968
						CHANNELS 3 Zrotation Yrotation Xrotation
						End Site
						{
							OFFSET 0.000000 0.000000 0.000000
						}
					}
				}
			}
		}
	}
	JOINT Spine_virtual
	{
		OFFSET 0.000000 0.000000 0.000000
		CHANNELS 3 Zrotation Yrotation Xrotation
		JOINT Spine
		{
			OFFSET 0.000000 6.876099 0.125700
			CHANNELS 3 Zrotation Yrotation Xrotation
			JOINT Spine1
			{
				OFFSET 0.000000 8.022060 0.146608
				CHANNELS 3 Zrotation Yrotation Xrotation
				JOINT Spine2
				{
					OFFSET 0.000000 9.168068 0.167552
					CHANNELS 3 Zrotation Yrotation Xrotation
					JOINT Neck_virtual
					{
						OFFSET 0.000000 0.000000 0.000000
						CHANNELS 3 Zrotation Yrotation Xrotation
						JOINT Neck
						{
							OFFSET 0.000000 10.314075 0.188496
							CHANNELS 3 Zrotation Yrotation Xrotation
							JOINT Head
							{
								OFFSET 0.000000 7.643700 -2.377400
								CHANNELS 3 Zrotation Yrotation Xrotation
								End Site
								{
									OFFSET 0.000000 0.000000 0.000000
								}
							}
						}
					}
					JOINT LeftShoulder_virtual
					{
						OFFSET 0.000000 0.000000 0.000000
						CHANNELS 3 Zrotation Yrotation Xrotation
						JOINT LeftShoulder
						{
							OFFSET 4.392200 8.824978 0.174984
							CHANNELS 3 Zrotation Yrotation Xrotation
							JOINT LeftArm
							{
								OFFSET 8.771219 -2.981674 -0.026999
								CHANNELS 3 Zrotation Yrotation Xrotation
								JOINT LeftForeArm
								{
									OFFSET 8.512804 0.000000 -0.000000
									CHANNELS 3 Zrotation Yrotation Xrotation
									JOINT LeftHand
									{
										OFFSET 18.484802 0.000000 -0.000000
										CHANNELS 3 Zrotation Yrotation Xrotation
										End Site
										{
											OFFSET 0.000000 0.000000 0.000000
										}
									}
								}
							}
						}
					}
					JOINT RightShoulder_virtual
					{
						OFFSET 0.000000 0.000000 0.000000
						CHANNELS 3 Zrotation Yrotation Xrotation
						JOINT RightShoulder
						{
							OFFSET -4.392200 8.824993 0.141379
							CHANNELS 3 Zrotation Yrotation Xrotation
							JOINT RightArm
							{
								OFFSET -8.771282 -2.981682 -0.094208
								CHANNELS 3 Zrotation Yrotation Xrotation
								JOINT RightForeArm
								{
									OFFSET -8.494598 0.000000 0.000000
									CHANNELS 3 Zrotation Yrotation Xrotation
									JOINT RightHand
									{
										OFFSET -18.483803 0.000000 0.000001
										CHANNELS 3 Zrotation Yrotation Xrotation
										End Site
										{
											OFFSET 0.000000 0.000000 0.000000
										}
									}
								}
							}
						}
					}
				}
			}
		}
	}
}
MOTION
Frames: 7
Frame Time: 0.033333
1.340002 35.905914 17.371990 179.905844 0.821042 -179.724434 -2.636683 -3.970801 10.401898 -14.919775 -3.177725 -15.471826 16.721124 4.492429 21.587311 1.309992 -1.981733 3.588359 0.000000 0.000000 0.000000 1.280971 -0.635145 7.632508 1.968918 2.675694 -11.754662 -7.053828 0.160446 17.690333 5.910248 3.408691 6.170657 0.000000 0.000000 0.000000 0.866212 0.237014 -2.243560 -4.114434 2.699213 -8.738909 0.728277 -3.868847 3.640445 -0.003613 0.018257 0.042926 0.633879 -2.529873 6.199512 -0.856621 3.803031 14.895995 0.000000 0.000000 0.000000 2.014299 -1.602991 3.194465 -7.064120 1.017366 -5.886315 -6.125580 9.681417 -38.264957 0.154689 -43.416880 -2.802711 0.000000 0.000000 0.000000 -1.284780 -0.876238 2.988706 20.222670 -0.378775 -9.596715 10.816902 -8.884667 -50.094421 0.193159 31.215945 2.742504 0.000000 0.000000 0.000000 
1.363489 35.910477 17.395691 179.910611 1.159282 -179.600780 -2.527714 -4.022884 10.612392 -14.575163 -3.802619 -15.148308 16.775013 3.774882 21.594039 1.242182 -1.991162 3.526824 0.000000 0.000000 0.000000 1.174356 -0.379907 7.599251 2.174309 2.533035 -11.668160 -6.963630 -0.161365 17.842665 5.962798 3.549971 6.803698 0.000000 0.000000 0.000000 0.825348 0.336564 -2.288458 -4.113607 2.702656 -8.806255 0.729410 -3.844479 3.617033 0.047096 0.034271 0.069458 0.619917 -2.554787 6.276596 -0.750588 3.784475 14.992158 0.000000 0.000000 0.000000 1.937914 -1.557557 3.212459 -7.124747 1.027614 -5.920817 -5.965027 9.672437 -38.295740 0.045402 -43.562639 -2.676896 0.000000 0.000000 0.000000 -1.374299 -0.866574 2.972147 20.321459 -0.379696 -9.614687 10.717899 -8.931442 -49.992945 0.203566 31.298420 2.764971 0.000000 0.000000 0.000000 
1.409434 35.908798 17.427580 179.891255 1.290538 -179.642731 -2.558531 -3.985762 10.573567 -14.450071 -3.715726 -15.128205 16.803193 3.761122 21.696425 1.167398 -1.977863 3.413983 0.000000 0.000000 0.000000 1.120034 -0.467817 7.529656 2.355440 2.655704 -11.547814 -7.061824 -0.106907 17.574044 5.973204 3.512196 6.937591 0.000000 0.000000 0.000000 0.765944 0.358570 -2.207822 -4.081619 2.699819 -8.721714 0.694389 -3.838670 3.623408 0.014861 0.041002 0.071988 0.438603 -2.395784 6.255079 -0.822950 3.518134 15.132711 0.000000 0.000000 0.000000 1.900851 -1.589871 3.233557 -7.161642 0.960109 -6.043433 -5.757154 9.698846 -38.372617 0.076124 -43.796365 -2.688504 0.000000 0.000000 0.000000 -1.431895 -0.960311 2.918206 20.562843 -0.526814 -9.645633 10.627376 -8.940278 -49.846946 0.186861 31.426342 2.761871 0.000000 0.000000 0.000000 
1.456755 35.902630 17.470060 179.890162 1.664063 -179.637131 -2.562792 -3.877519 10.438298 -14.344546 -3.643384 -15.064699 16.835503 3.921206 21.927774 1.063816 -2.005027 3.237036 0.000000 0.000000 0.000000 1.029606 -0.518249 7.366809 2.617933 2.881242 -11.392614 -7.141259 0.226461 17.251251 5.792278 3.456153 7.193962 0.000000 0.000000 0.000000 0.724361 0.344851 -2.158558 -4.051458 2.728944 -8.604268 0.604628 -3.810857 3.593797 0.017097 0.057300 0.065130 0.482833 -2.543349 6.188351 -0.434262 3.423371 15.284268 0.000000 0.000000 0.000000 1.843287 -1.559802 3.142826 -7.118121 0.956993 -5.973221 -5.414043 9.764169 -38.347055 0.155727 -43.908984 -2.695594 0.000000 0.000000 0.000000 -1.473542 -0.951774 2.820358 20.889317 -0.597926 -9.681445 10.519786 -9.070270 -49.691375 0.246934 31.648563 2.830869 0.000000 0.000000 0.000000 
1.491416 35.898220 17.494844 179.893195 1.887898 -179.630273 -2.605224 -3.889137 10.236767 -14.244551 -3.460861 -14.942770 16.897955 4.001364 22.205170 0.981145 -2.038762 3.108514 0.000000 0.000000 0.000000 0.949478 -0.702211 7.130102 2.821390 3.071482 -11.229693 -7.247319 0.440283 16.983417 5.858165 3.343745 7.420752 0.000000 0.000000 0.000000 0.645424 0.415489 -2.102601 -4.026553 2.759800 -8.410452 0.533895 -3.800193 3.576425 0.004913 0.052238 0.067241 0.423927 -2.568865 6.058868 -0.142821 3.158149 15.356391 0.000000 0.000000 0.000000 1.768919 -1.614918 3.037382 -7.088161 0.838296 -5.985711 -5.069159 9.762940 -38.152484 0.147116 -43.948371 -2.634230 0.000000 0.000000 0.000000 -1.497440 -0.901784 2.579798 21.211907 -0.893131 -9.660963 10.404587 -9.157902 -49.559142 0.225906 31.709717 2.799828 0.000000 0.000000 0.000000 
1.509327 35.904362 17.506552 179.887348 1.927705 -179.583896 -2.659548 -3.940641 10.042983 -14.119286 -3.192109 -14.841986 16.985849 3.928073 22.352994 0.967283 -2.039555 2.990748 0.000000 0.000000 0.000000 0.897660 -0.827975 6.945444 2.994652 3.039331 -11.033857 -7.280649 0.776249 16.722924 5.850315 3.251357 7.567376 0.000000 0.000000 0.000000 0.582112 0.169005 -2.046847 -3.970803 2.817400 -8.197018 0.495170 -3.779490 3.595302 0.078267 0.063701 0.059214 0.254567 -2.354277 5.894289 0.015878 2.712873 15.326178 0.000000 0.000000 0.000000 1.693113 -1.589231 2.913674 -7.073932 0.783252 -5.963722 -4.841249 9.742163 -37.866955 0.186091 -43.920411 -2.597572 0.000000 0.000000 0.000000 -1.574735 -0.950168 2.442371 21.418818 -0.950133 -9.642322 10.375937 -9.385708 -49.257398 0.156213 31.680702 2.662200 0.000000 0.000000 0.000000 
1.506528 35.921947 17.499432 179.875723 2.105430 -179.551699 -2.753461 -3.885146 9.985656 -14.047027 -2.953451 -14.779857 17.022583 4.035633 22.425032 0.887770 -2.123147 2.856905 0.000000 0.000000 0.000000 0.877794 -0.805454 6.819810 3.067256 3.154436 -10.959151 -7.401745 0.718023 16.632317 5.794841 3.402728 7.793077 0.000000 0.000000 0.000000 0.471693 0.045185 -1.968337 -3.910440 2.899901 -8.015902 0.528829 -3.746303 3.629345 0.002173 0.063906 0.056997 0.367876 -2.502608 5.809283 0.594311 2.497734 15.316636 0.000000 0.000000 0.000000 1.721275 -1.504186 2.764727 -6.950003 0.760021 -5.840476 -4.832181 9.577252 -37.432739 0.037189 -43.746761 -2.419693 0.000000 0.000000 0.000000 -1.513478 -0.892627 2.383804 21.601747 -1.074362 -9.651359 10.342318 -9.578806 -49.267753 0.269919 31.613216 2.644535 0.000000 0.000000 0.000000 
